<svg width="32" height="38" viewBox="0 0 32 38" fill="none" xmlns="http://www.w3.org/2000/svg">
<path d="M6 11C6 9.89543 6.89543 9 8 9H20L26 15V27C26 28.1046 25.1046 29 24 29H8C6.89543 29 6 28.1046 6 27V11Z" fill="#060606"/>
<path d="M13.91 21H13.4L12.455 19.45L11.495 21H11.02L12.205 19.14L11.095 17.43H11.595L12.47 18.83L13.35 17.43H13.825L12.72 19.13L13.91 21ZM15.9897 21L14.8147 17.87H14.7947C14.8014 17.9367 14.8064 18.0217 14.8097 18.125C14.8164 18.2283 14.8214 18.3417 14.8247 18.465C14.828 18.585 14.8297 18.7083 14.8297 18.835V21H14.4147V17.43H15.0797L16.1797 20.355H16.1997L17.3197 17.43H17.9797V21H17.5347V18.805C17.5347 18.6883 17.5364 18.5733 17.5397 18.46C17.543 18.3433 17.548 18.235 17.5547 18.135C17.5614 18.0317 17.5664 17.945 17.5697 17.875H17.5497L16.3597 21H15.9897ZM18.9508 21V17.43H19.4008V20.6H20.9608V21H18.9508Z" fill="white"/>
</svg>
